# xmcd CD database file
#
# Track frame offsets:
#	150
#	18332
#	41277
#	62230
#	82397
#	101262
#	117817
#	136177
#	152602
#
# Disc length: 2223 seconds
#
# Revision: 0
# Processed by: cddbd v1.5PL3 Copyright (c) Steve Scherf et al.
# Submitted via: CDex 1.51
#
DISCID=6908ad09
DTITLE=Roland Hanna - Easy To Love
DYEAR=1959
DGENRE=Jazz
TTITLE0=The Best Things In Life Are Free
TTITLE1=Next Time You See Me
TTITLE2=From This Day On
TTITLE3=Like Someone In Love
TTITLE4=Yesterdays
TTITLE5=Farouk Thelonious
TTITLE6=It Never Entered My Mind
TTITLE7=Easy To Love
TTITLE8=Night In Tunisia
EXTD=YEAR: 1959
EXTT0=
EXTT1=
EXTT2=
EXTT3=
EXTT4=
EXTT5=
EXTT6=
EXTT7=
EXTT8=
PLAYORDER=
